<svg width="32" height="52" viewBox="0 0 32 52" fill="none" xmlns="http://www.w3.org/2000/svg">
    <path d="M18.9943 16H13.0057C4.39589 16 -1.40897 24.9515 1.98259 32.9984C2.45504 34.1194 3.539 34.8462 4.73836 34.8462H6.8473C7.55815 34.8462 8.17777 35.3381 8.35017 36.0393L11.0652 47.0821C11.6313 49.3847 13.6659 51 16 51C18.3341 51 20.3687 49.3847 20.9348 47.0821L23.6498 36.0393C23.8222 35.3381 24.4419 34.8462 25.1527 34.8462H27.2616C28.461 34.8462 29.545 34.1194 30.0174 32.9984C33.409 24.9515 27.6041 16 18.9943 16Z" fill="#FFC700" stroke="#FFC700" stroke-width="1.5"/>
    <circle cx="16" cy="8.5" r="7.5" fill="#FFC700" stroke="#FFC700" stroke-width="1.5"/>
</svg>
