<svg width="15" height="16" viewBox="0 0 15 16" fill="none" xmlns="http://www.w3.org/2000/svg">
    <path d="M8.79607 2.92841C9.26181 2.4238 9.49468 2.1715 9.74213 2.02433C10.3392 1.66922 11.0744 1.65818 11.6815 1.9952C11.9331 2.13487 12.1731 2.38008 12.6531 2.87048C13.1332 3.36088 13.3732 3.60608 13.51 3.86308C13.8399 4.4832 13.8291 5.23424 13.4815 5.84419C13.3374 6.09697 13.0904 6.33486 12.5964 6.81063L6.71914 12.4714C5.78305 13.373 5.315 13.8239 4.73004 14.0523C4.14508 14.2808 3.502 14.264 2.21585 14.2304L2.04086 14.2258C1.64932 14.2155 1.45354 14.2104 1.33974 14.0813C1.22594 13.9521 1.24148 13.7527 1.27255 13.3539L1.28942 13.1373C1.37688 12.0147 1.42061 11.4534 1.63982 10.9489C1.85903 10.4443 2.23715 10.0347 2.99339 9.21531L8.79607 2.92841Z" stroke="#667085" stroke-width="1.5" stroke-linejoin="round"/>
    <path d="M8.125 3L12.5 7.375" stroke="#667085" stroke-width="1.5" stroke-linejoin="round"/>
    <path d="M8.75 14.25L13.75 14.25" stroke="#667085" stroke-width="1.5" stroke-linecap="round" stroke-linejoin="round"/>
</svg>
