<svg width="200" height="46" viewBox="0 0 200 46" fill="none" xmlns="http://www.w3.org/2000/svg">
<g clip-path="url(#clip0_1841_163905)">
<path d="M34.1799 17.543C33.1973 18.0168 32.4225 18.8343 32.0021 19.8409C31.7727 20.442 31.6733 21.0848 31.7104 21.7271C31.7476 22.3694 31.9203 22.9965 32.2174 23.5672C31.3479 23.8446 24.1188 25.8982 20.9059 22.5238C19.1918 23.1614 16.8359 24.3953 17.1589 27.84C17.8048 34.6095 22.1977 31.438 27.5595 39.5034C27.0088 38.2613 24.8061 33.0859 24.9676 29.5997C25.0131 28.6308 25.1456 27.8359 25.7087 27.4219C26.6126 26.8074 27.6796 26.4773 28.7726 26.4737C29.5096 26.4737 35.8733 25.3351 37.2024 23.2277C37.4011 22.913 38.519 21.0167 38.3658 20.0065C38.1588 18.6609 35.6083 18.0812 34.1799 17.543Z" fill="black"/>
<path d="M21.5505 18.4042C23.4343 19.5263 27.0033 19.5801 30.3404 17.5762C27.1648 15.2079 28.4028 12.5663 25.3472 11.3656C23.0327 10.4506 19.5093 11.9536 17.8945 11.1917C18.4452 12.5788 17.435 15.949 21.5505 18.4042ZM27.1068 16.6612C25.4797 17.2532 24.2334 17.3526 23.2729 17.1704C26.0842 16.3423 25.43 14.0196 24.4404 12.9928C26.8211 14.2183 26.287 16.1477 27.1068 16.6612ZM24.5771 14.8518C24.5722 15.2526 24.4257 15.6386 24.1635 15.9418C23.9013 16.2449 23.5404 16.4454 23.1445 16.508C23.3698 16.0984 23.4732 15.6329 23.4426 15.1665C23.4084 14.8205 23.3054 14.4848 23.1398 14.179C22.9741 13.8733 22.7491 13.6038 22.4779 13.3861C23.5999 13.1874 24.5357 13.9699 24.5771 14.8518Z" fill="black"/>
<path d="M38.5385 0H6.94338C5.10255 0.00219146 3.33775 0.734428 2.03609 2.03609C0.734428 3.33775 0.00219146 5.10255 0 6.94338L0 38.5385C0.00219146 40.3793 0.734428 42.1441 2.03609 43.4457C3.33775 44.7474 5.10255 45.4796 6.94338 45.4818H38.5385C40.3793 45.4796 42.1441 44.7474 43.4457 43.4457C44.7474 42.1441 45.4796 40.3793 45.4818 38.5385V6.94338C45.4796 5.10255 44.7474 3.33775 43.4457 2.03609C42.1441 0.734428 40.3793 0.00219146 38.5385 0ZM42.7037 38.5385C42.7026 39.6428 42.2634 40.7016 41.4825 41.4825C40.7016 42.2634 39.6428 42.7026 38.5385 42.7037H24.5606C18.6026 34.9198 5.59362 36.2737 7.03861 28.407C8.06542 22.7347 11.8249 24.8256 13.4976 20.5403C15.0875 16.4579 9.71742 12.0443 11.0879 9.87061C13.2988 6.36787 26.2582 8.92661 29.4545 11.2287C29.0405 10.2432 26.2002 7.73833 18.6109 6.13601C15.4063 5.45699 10.7442 5.8172 7.10485 8.50016C6.07647 9.26855 5.18367 10.2033 4.46331 11.2659C3.78107 12.2232 3.22448 13.264 2.80716 14.3629V6.94338C2.80822 5.84404 3.24342 4.7896 4.01806 4.00953C4.79269 3.22947 5.84407 2.78691 6.94338 2.77818H38.5385C39.6428 2.77928 40.7016 3.21846 41.4825 3.99935C42.2634 4.78024 42.7026 5.83904 42.7037 6.94338V38.5385Z" fill="black"/>
<path d="M72.8693 25.2565C73.1053 25.7781 73.3289 26.3164 73.5483 26.8629C73.7636 26.2998 73.9913 25.7574 74.2356 25.2068C74.4799 24.6561 74.7242 24.1634 74.9809 23.6666L82.1271 9.58934C82.2282 9.38233 82.3609 9.19235 82.5204 9.02625C82.6465 8.89604 82.799 8.79439 82.9676 8.72814C83.1481 8.66302 83.3388 8.63077 83.5307 8.63291H89.1988V36.4851H83.5183V20.4702C83.5183 19.6918 83.5597 18.8513 83.6342 17.9446L76.2561 32.2619C76.0521 32.682 75.7297 33.0331 75.3286 33.2722C74.9272 33.5069 74.4686 33.6259 74.0037 33.6158H73.1218C72.6569 33.6259 72.1983 33.5069 71.7969 33.2722C71.3958 33.0331 71.0735 32.682 70.8695 32.2619L63.4541 17.928C63.5038 18.3724 63.541 18.8154 63.5659 19.2571C63.5907 19.6959 63.6073 20.0851 63.6073 20.4702V36.4851H57.9102V8.65775H63.5783C63.7702 8.65561 63.9609 8.68786 64.1414 8.75298C64.3101 8.81923 64.4625 8.92089 64.5886 9.05109C64.7481 9.21719 64.8809 9.40717 64.9819 9.61418L72.1488 23.7535C72.4014 24.2379 72.6498 24.743 72.8693 25.2565Z" fill="black"/>
<path d="M118 42.7745V16.6654H121.668C121.995 16.6548 122.318 16.7412 122.596 16.9138C122.853 17.0927 123.039 17.3565 123.122 17.6591L123.56 19.1123C123.941 18.6948 124.356 18.3111 124.803 17.9654C125.242 17.6214 125.715 17.3231 126.214 17.0753C126.733 16.8213 127.279 16.6268 127.842 16.4956C128.464 16.35 129.102 16.2791 129.742 16.2845C130.743 16.2759 131.731 16.5133 132.62 16.9759C133.52 17.4546 134.298 18.1347 134.893 18.9633C135.578 19.927 136.085 21.0052 136.391 22.1472C136.774 23.5373 136.958 24.9744 136.938 26.4159C136.953 27.8203 136.744 29.2182 136.317 30.5563C135.934 31.7435 135.339 32.8516 134.561 33.8272C133.844 34.7438 132.936 35.4928 131.899 36.0215C130.829 36.5548 129.646 36.8245 128.45 36.8082C127.568 36.8246 126.69 36.67 125.867 36.3528C125.171 36.0611 124.527 35.66 123.958 35.1645V42.7745H118ZM127.672 20.8306C127.276 20.8263 126.882 20.8679 126.496 20.9548C126.157 21.0326 125.829 21.1507 125.519 21.3067C125.217 21.462 124.938 21.6585 124.691 21.8905C124.417 22.1484 124.161 22.4251 123.925 22.7186V31.0945C124.318 31.5544 124.817 31.9124 125.378 32.1379C125.907 32.3379 126.469 32.4375 127.034 32.4319C127.554 32.4379 128.069 32.3275 128.541 32.1089C129.028 31.8695 129.442 31.5051 129.742 31.0531C130.118 30.4858 130.386 29.8542 130.533 29.19C130.743 28.2751 130.841 27.3379 130.823 26.3994C130.837 25.5146 130.759 24.6307 130.591 23.7619C130.478 23.1544 130.262 22.5706 129.953 22.0354C129.716 21.6441 129.375 21.326 128.968 21.1163C128.571 20.9166 128.133 20.813 127.688 20.814L127.672 20.8306Z" fill="black"/>
<path d="M146.034 7.86621V23.9101H146.912C147.204 23.9236 147.496 23.8713 147.765 23.7569C147.997 23.6155 148.19 23.4193 148.328 23.1855L152.075 17.6043C152.264 17.2968 152.531 17.0452 152.849 16.8756C153.205 16.713 153.593 16.635 153.984 16.6479H159.403L154.282 23.6865C154.05 24.0087 153.783 24.3044 153.487 24.5684C153.2 24.824 152.891 25.0539 152.564 25.2557C153.167 25.7265 153.673 26.3101 154.054 26.974L159.635 36.4554H154.29C153.894 36.4647 153.5 36.3899 153.135 36.2359C152.792 36.0724 152.513 35.8002 152.34 35.4617L148.593 28.4479C148.473 28.1919 148.282 27.9761 148.042 27.8269C147.769 27.7164 147.475 27.6669 147.181 27.682H146.034V36.4844H140.109V7.86621H146.034Z" fill="black"/>
<path d="M175.814 36.4848C175.378 36.5093 174.942 36.4298 174.543 36.2529C174.197 36.0316 173.943 35.6937 173.826 35.3006L173.412 34.2117C172.915 34.6313 172.438 34.9998 171.98 35.3172C171.53 35.635 171.054 35.9121 170.555 36.1453C170.052 36.3683 169.526 36.5349 168.986 36.6421C168.379 36.7546 167.762 36.8086 167.144 36.8036C166.302 36.8148 165.464 36.6947 164.66 36.4475C163.966 36.2366 163.326 35.881 162.78 35.4042C162.254 34.9309 161.845 34.3429 161.583 33.6859C161.294 32.9306 161.153 32.1264 161.169 31.3176C161.182 30.5648 161.364 29.8245 161.703 29.1522C162.129 28.324 162.764 27.6216 163.546 27.1152C164.638 26.4158 165.838 25.901 167.098 25.5915C168.943 25.1415 170.839 24.9355 172.737 24.9787V24.1507C172.737 22.9803 172.499 22.1343 172.021 21.6126C171.757 21.3447 171.439 21.1365 171.087 21.0023C170.736 20.868 170.36 20.8107 169.984 20.8342C169.403 20.8168 168.822 20.8937 168.266 21.0619C167.853 21.2011 167.453 21.3742 167.069 21.5795C166.721 21.7699 166.378 21.9397 166.047 22.0929C165.673 22.2555 165.269 22.3346 164.862 22.3248C164.493 22.3358 164.13 22.2316 163.823 22.0267C163.543 21.8386 163.31 21.5877 163.144 21.2938L162.072 19.4389C163.234 18.3994 164.589 17.5976 166.059 17.0789C167.567 16.5538 169.154 16.2919 170.75 16.3047C171.857 16.288 172.956 16.4863 173.988 16.8885C174.911 17.2465 175.746 17.8002 176.435 18.5115C177.116 19.2233 177.64 20.0694 177.975 20.9957C178.34 21.9999 178.521 23.0616 178.509 24.13V36.4848H175.814ZM169.007 32.8703C169.698 32.8801 170.384 32.7388 171.015 32.4562C171.666 32.1277 172.255 31.6877 172.754 31.1561V28.4566C171.774 28.4399 170.796 28.5176 169.831 28.6885C169.201 28.798 168.59 28.993 168.013 29.2681C167.636 29.4389 167.314 29.7131 167.086 30.0589C166.916 30.3506 166.828 30.6822 166.829 31.0195C166.8 31.2859 166.836 31.5552 166.932 31.8051C167.029 32.0551 167.184 32.2783 167.384 32.4562C167.867 32.7644 168.436 32.9096 169.007 32.8703Z" fill="black"/>
<path d="M187.41 36.4849V21.7121H180.785V16.665H200.001V21.7121H193.376V36.4849H187.41Z" fill="black"/>
<path d="M110.134 16.6651C109.917 16.6639 109.7 16.6749 109.484 16.6983C109.276 16.7233 109.074 16.7806 108.884 16.868C108.696 16.9612 108.523 17.0812 108.37 17.2241C108.215 17.3771 108.07 17.5403 107.936 17.7126L99.5184 27.9766V27.9145C99.5184 27.6454 99.5184 27.4176 99.5184 27.2934C99.5184 26.8794 99.5474 26.4654 99.5474 26.0513V16.6651H93.8047V36.485H97.0797C97.5184 36.4985 97.9545 36.4121 98.3549 36.2325C98.7567 36.0337 99.1046 35.7412 99.3693 35.3796L107.712 25.1736C107.712 25.4386 107.712 25.6621 107.712 25.7781C107.691 26.1921 107.679 26.5647 107.679 26.9042V36.485H113.447V16.6651H110.134Z" fill="black"/>
</g>
<defs>
<clipPath id="clip0_1841_163905">
<rect width="200" height="45.4818" fill="white"/>
</clipPath>
</defs>
</svg>
