<svg width="22" height="22" viewBox="0 0 22 22" fill="none" xmlns="http://www.w3.org/2000/svg">
    <path d="M16.5798 9.21016C16.0765 9.07314 15.5468 9 15 9C12.4668 9 10.3002 10.5699 9.42018 12.7898M16.5798 9.21016C19.1271 9.90358 21 12.2331 21 15C21 18.3137 18.3137 21 15 21C13.4633 21 12.0615 20.4223 11 19.4722M16.5798 9.21016C16.851 8.52618 17 7.7805 17 7C17 3.68629 14.3137 1 11 1C7.68629 1 5 3.68629 5 7C5 7.7805 5.14903 8.52618 5.42018 9.21016M9.42018 12.7898C9.14903 13.4738 9 14.2195 9 15C9 16.777 9.7725 18.3736 11 19.4722M9.42018 12.7898C7.59146 12.292 6.11029 10.951 5.42018 9.21016M5.42018 9.21016C2.87294 9.90358 1 12.2331 1 15C1 18.3137 3.68629 21 7 21C8.53671 21 9.93849 20.4223 11 19.4722" stroke="#667085" stroke-width="1.5" stroke-linecap="round"/>
</svg>
